<svg width="216" height="66" viewBox="0 0 216 66" fill="none" xmlns="http://www.w3.org/2000/svg">
<path d="M170.804 12.0193L183.762 23.6869L198.863 14.9684L191.771 30.8979L204.729 42.5656L187.387 40.7429L180.295 56.6724L176.67 39.6164L159.328 37.7938L174.429 29.0753L170.804 12.0193Z" fill="#FAEDCD" fill-opacity="0.8"/>
<path d="M173.231 16.2231L182.758 24.8016L183.568 25.5309L184.512 24.986L195.615 18.5757L190.4 30.2878L189.957 31.2834L190.767 32.0126L200.294 40.5912L187.544 39.2511L186.46 39.1372L186.017 40.1328L180.803 51.8449L178.137 39.3046L177.91 38.2386L176.827 38.1247L164.076 36.7846L175.179 30.3743L176.123 29.8294L175.896 28.7634L173.231 16.2231Z" stroke="#774936" stroke-opacity="0.8" stroke-width="3"/>
<path d="M23.56 20.36C26.3867 20.36 28.56 20.9734 30.08 22.2C31.6267 23.4267 32.4 25.0534 32.4 27.08C32.4 27.88 32.28 28.72 32.04 29.6C31.2933 32.2667 29.8133 34.24 27.6 35.52C25.4133 36.8 22.64 37.44 19.28 37.44H15.16L13.8 42.28C13.7467 42.44 13.72 42.6534 13.72 42.92C13.72 43.2934 13.8 43.6 13.96 43.84C14.1467 44.08 14.4133 44.36 14.76 44.68C15.0533 44.9467 15.2533 45.1467 15.36 45.28C15.4667 45.4134 15.52 45.5734 15.52 45.76C15.52 46.2134 15.3067 46.5334 14.88 46.72C14.4533 46.9067 13.8267 47 13 47H2.96C2.26667 47 1.74667 46.88 1.4 46.64C1.05333 46.3734 0.933333 46.0134 1.04 45.56C1.09333 45.32 1.2 45.1334 1.36 45C1.49333 44.84 1.70667 44.6667 2 44.48C2.45333 44.2134 2.81333 43.9334 3.08 43.64C3.34667 43.3467 3.56 42.8934 3.72 42.28L8.6 25.04C8.70667 24.6934 8.76 24.36 8.76 24.04C8.76 23.7467 8.70667 23.5067 8.6 23.32C8.52 23.1067 8.4 22.8667 8.24 22.6C8 22.2534 7.88 21.9734 7.88 21.76C7.88 21.68 7.90667 21.5334 7.96 21.32C8.06667 20.9734 8.29333 20.7334 8.64 20.6C9.01333 20.44 9.57333 20.36 10.32 20.36H23.56ZM22.52 28.88C22.8133 27.8934 22.96 27.0267 22.96 26.28C22.96 24.7334 22.24 23.96 20.8 23.96H19L16.16 33.84H17.92C19.04 33.84 19.9467 33.4934 20.64 32.8C21.36 32.08 21.9867 30.7734 22.52 28.88ZM42.0647 25.64C45.4514 25.64 47.9047 26.1867 49.4247 27.28C50.9447 28.3467 51.7047 29.72 51.7047 31.4C51.7047 31.9067 51.6514 32.3734 51.5447 32.8C51.1447 34.56 50.0247 35.8267 48.1847 36.6C46.3714 37.3467 44.2247 37.72 41.7447 37.72C40.4914 37.72 39.318 37.64 38.2247 37.48C38.198 38.8667 38.5714 39.84 39.3447 40.4C40.118 40.96 41.198 41.24 42.5847 41.24C43.2247 41.24 43.838 41.1734 44.4247 41.04C45.0114 40.88 45.758 40.6534 46.6647 40.36C47.4114 40.0934 47.918 39.96 48.1847 39.96C48.478 39.96 48.6247 40.1334 48.6247 40.48C48.6514 41.4134 48.3047 42.4 47.5847 43.44C46.8647 44.4534 45.798 45.32 44.3847 46.04C42.9714 46.76 41.2647 47.12 39.2647 47.12C36.3047 47.12 33.878 46.3734 31.9847 44.88C30.0914 43.3867 29.1447 41.2134 29.1447 38.36C29.1447 37.56 29.2514 36.6267 29.4647 35.56C30.1314 32.28 31.5847 29.8134 33.8247 28.16C36.0914 26.48 38.838 25.64 42.0647 25.64ZM38.5047 35.08C38.6114 35.1067 38.758 35.12 38.9447 35.12C40.0647 35.12 40.918 34.6 41.5047 33.56C42.0914 32.52 42.3714 31.36 42.3447 30.08C42.318 29.3334 42.1047 28.96 41.7047 28.96C41.4114 28.96 41.0647 29.2 40.6647 29.68C40.2647 30.1334 39.8647 30.8267 39.4647 31.76C39.0914 32.6934 38.7714 33.8 38.5047 35.08ZM64.3675 25.84C67.4342 25.84 69.8875 26.4134 71.7275 27.56C73.5675 28.68 74.4875 30.4 74.4875 32.72C74.4875 33.6 74.3275 34.6 74.0075 35.72L72.3675 41.24C72.3408 41.3467 72.3275 41.48 72.3275 41.64C72.3275 42.0667 72.5008 42.28 72.8475 42.28C73.1675 42.28 73.4342 42.1467 73.6475 41.88C73.8875 41.5867 74.0475 41.44 74.1275 41.44C74.2608 41.44 74.3675 41.5334 74.4475 41.72C74.5542 41.9067 74.6075 42.12 74.6075 42.36C74.6342 43.08 74.3542 43.8134 73.7675 44.56C73.2075 45.3067 72.4475 45.92 71.4875 46.4C70.5275 46.88 69.4742 47.12 68.3275 47.12C66.9408 47.12 65.7542 46.8667 64.7675 46.36C63.7808 45.8534 63.1008 45.1067 62.7275 44.12C61.9275 45.08 60.9808 45.8267 59.8875 46.36C58.7942 46.8667 57.6208 47.12 56.3675 47.12C54.9542 47.12 53.7675 46.8534 52.8075 46.32C51.8475 45.76 51.1275 45.0534 50.6475 44.2C50.1942 43.32 49.9675 42.4 49.9675 41.44C49.9675 41.0134 50.0075 40.6 50.0875 40.2C50.5142 38.36 51.4342 36.9734 52.8475 36.04C54.2875 35.1067 55.9942 34.64 57.9675 34.64C60.1808 34.64 62.3542 34.9867 64.4875 35.68L65.4875 33.04C65.8342 31.92 66.0075 31.0534 66.0075 30.44C65.9808 29.8 65.7675 29.32 65.3675 29C64.9675 28.68 64.3542 28.52 63.5275 28.52C63.6875 28.9467 63.7675 29.3867 63.7675 29.84C63.7675 30.8267 63.3942 31.68 62.6475 32.4C61.9008 33.12 60.8342 33.48 59.4475 33.48C58.1408 33.48 57.1142 33.2 56.3675 32.64C55.6475 32.0534 55.2875 31.3334 55.2875 30.48C55.2875 29.1467 56.0342 28.04 57.5275 27.16C59.0208 26.28 61.3008 25.84 64.3675 25.84ZM62.1275 37.96C61.3808 37.96 60.7675 38.2534 60.2875 38.84C59.8342 39.4 59.6075 40.0134 59.6075 40.68C59.6075 41.1067 59.7008 41.4534 59.8875 41.72C60.1008 41.9867 60.3942 42.12 60.7675 42.12C61.1142 42.12 61.4875 41.9867 61.8875 41.72C62.3142 41.4267 62.6208 41 62.8075 40.44L63.6475 38.08C63.1942 38 62.6875 37.96 62.1275 37.96ZM95.0994 25.84C96.5927 25.84 97.7794 26.2934 98.6594 27.2C99.566 28.1067 100.019 29.2267 100.019 30.56C100.019 31.0667 99.966 31.5334 99.8594 31.96C99.5927 33.0534 99.086 33.8934 98.3394 34.48C97.5927 35.0667 96.6994 35.36 95.6594 35.36C94.646 35.36 93.8727 35.12 93.3394 34.64C92.8327 34.16 92.3794 33.52 91.9794 32.72C91.766 32.2667 91.566 31.9334 91.3794 31.72C91.1927 31.5067 90.9794 31.4 90.7394 31.4C90.4727 31.4 90.2327 31.5067 90.0194 31.72C89.8327 31.9334 89.6594 32.3067 89.4994 32.84L86.4194 42.84C86.366 42.9734 86.3394 43.1734 86.3394 43.44C86.3394 43.7867 86.4327 44.08 86.6194 44.32C86.8327 44.5334 87.1127 44.7467 87.4594 44.96C87.7794 45.1734 87.9927 45.3467 88.0994 45.48C88.206 45.6134 88.246 45.7867 88.2194 46C88.166 46.3467 87.966 46.6 87.6194 46.76C87.2994 46.92 86.7394 47 85.9394 47H75.6994C75.006 47 74.5127 46.8934 74.2194 46.68C73.8994 46.44 73.7794 46.1334 73.8594 45.76C73.966 45.44 74.246 45.16 74.6994 44.92C75.0994 44.7067 75.4327 44.4534 75.6994 44.16C75.966 43.8667 76.1927 43.4 76.3794 42.76L79.9394 31.2C79.9927 31.0667 80.0194 30.88 80.0194 30.64C80.0194 30.3467 79.9527 30.12 79.8194 29.96C79.7127 29.8 79.526 29.6 79.2594 29.36C78.9927 29.1467 78.806 28.96 78.6994 28.8C78.5927 28.64 78.5794 28.4267 78.6594 28.16C78.8194 27.5467 79.6594 27.0134 81.1794 26.56C82.6994 26.08 84.286 25.84 85.9394 25.84C87.0327 25.84 87.9394 26.0934 88.6594 26.6C89.3794 27.08 89.846 27.7734 90.0594 28.68C91.3394 26.7867 93.0194 25.84 95.0994 25.84ZM129.863 20.36C131.33 20.36 132.063 20.96 132.063 22.16C132.063 22.5334 131.983 23 131.823 23.56L130.863 26.8C130.57 27.7867 130.21 28.48 129.783 28.88C129.357 29.28 128.743 29.48 127.943 29.48C127.277 29.48 126.757 29.3067 126.383 28.96C126.037 28.6134 125.703 28.0667 125.383 27.32L124.703 25.68C124.49 25.1734 124.263 24.8267 124.023 24.64C123.783 24.4534 123.41 24.36 122.903 24.36H121.983L116.903 42.24C116.823 42.5867 116.783 42.8934 116.783 43.16C116.783 43.48 116.823 43.7467 116.903 43.96C117.01 44.1734 117.157 44.4 117.343 44.64C117.583 45.0134 117.703 45.32 117.703 45.56C117.703 45.6134 117.677 45.7467 117.623 45.96C117.49 46.3067 117.223 46.56 116.823 46.72C116.45 46.88 115.903 46.96 115.183 46.96H105.783C105.223 46.96 104.783 46.8667 104.463 46.68C104.17 46.4934 104.023 46.2267 104.023 45.88C104.023 45.72 104.063 45.56 104.143 45.4C104.25 45.16 104.37 44.9867 104.503 44.88C104.663 44.7467 104.89 44.5867 105.183 44.4C105.583 44.16 105.917 43.8934 106.183 43.6C106.45 43.3067 106.677 42.8534 106.863 42.24L111.903 24.36H110.983C110.397 24.36 109.917 24.4534 109.543 24.64C109.17 24.8267 108.77 25.1734 108.343 25.68L107.023 27.32C106.41 28.04 105.81 28.5867 105.223 28.96C104.663 29.3067 104.05 29.48 103.383 29.48C102.77 29.48 102.29 29.32 101.943 29C101.597 28.68 101.423 28.24 101.423 27.68C101.423 27.4134 101.463 27.12 101.543 26.8L102.583 23.16C102.797 22.4134 103.037 21.8534 103.303 21.48C103.57 21.08 103.943 20.8 104.423 20.64C104.93 20.4534 105.637 20.36 106.543 20.36H129.863ZM140.935 25.64C144.322 25.64 146.775 26.1867 148.295 27.28C149.815 28.3467 150.575 29.72 150.575 31.4C150.575 31.9067 150.522 32.3734 150.415 32.8C150.015 34.56 148.895 35.8267 147.055 36.6C145.242 37.3467 143.095 37.72 140.615 37.72C139.362 37.72 138.188 37.64 137.095 37.48C137.068 38.8667 137.442 39.84 138.215 40.4C138.988 40.96 140.068 41.24 141.455 41.24C142.095 41.24 142.708 41.1734 143.295 41.04C143.882 40.88 144.628 40.6534 145.535 40.36C146.282 40.0934 146.788 39.96 147.055 39.96C147.348 39.96 147.495 40.1334 147.495 40.48C147.522 41.4134 147.175 42.4 146.455 43.44C145.735 44.4534 144.668 45.32 143.255 46.04C141.842 46.76 140.135 47.12 138.135 47.12C135.175 47.12 132.748 46.3734 130.855 44.88C128.962 43.3867 128.015 41.2134 128.015 38.36C128.015 37.56 128.122 36.6267 128.335 35.56C129.002 32.28 130.455 29.8134 132.695 28.16C134.962 26.48 137.708 25.64 140.935 25.64ZM137.375 35.08C137.482 35.1067 137.628 35.12 137.815 35.12C138.935 35.12 139.788 34.6 140.375 33.56C140.962 32.52 141.242 31.36 141.215 30.08C141.188 29.3334 140.975 28.96 140.575 28.96C140.282 28.96 139.935 29.2 139.535 29.68C139.135 30.1334 138.735 30.8267 138.335 31.76C137.962 32.6934 137.642 33.8 137.375 35.08ZM163.478 25.64C165.104 25.64 166.531 25.88 167.758 26.36C168.984 26.8134 169.931 27.4534 170.598 28.28C171.291 29.08 171.638 29.9734 171.638 30.96C171.638 32.0267 171.264 32.9067 170.518 33.6C169.798 34.2934 168.811 34.64 167.558 34.64C166.278 34.64 165.278 34.32 164.558 33.68C163.838 33.0134 163.478 32.12 163.478 31C163.478 30.4667 163.558 29.9067 163.718 29.32C162.598 29.6134 161.598 30.2 160.718 31.08C159.864 31.9334 159.291 33.0667 158.998 34.48C158.838 35.28 158.758 36 158.758 36.64C158.758 38.08 159.158 39.1734 159.958 39.92C160.758 40.6667 161.904 41.04 163.398 41.04C164.251 41.04 164.984 40.96 165.598 40.8C166.211 40.6134 166.838 40.3734 167.478 40.08C168.011 39.8134 168.398 39.68 168.638 39.68C168.798 39.68 168.904 39.72 168.958 39.8C169.011 39.8534 169.038 39.9867 169.038 40.2C169.064 41.1867 168.651 42.2267 167.798 43.32C166.971 44.3867 165.811 45.2934 164.318 46.04C162.851 46.76 161.198 47.12 159.358 47.12C157.438 47.12 155.731 46.7734 154.238 46.08C152.771 45.36 151.624 44.3467 150.798 43.04C149.998 41.7067 149.598 40.16 149.598 38.4C149.598 37.5734 149.704 36.6534 149.918 35.64C150.638 32.3334 152.224 29.84 154.678 28.16C157.158 26.48 160.091 25.64 163.478 25.64ZM194.357 41.48C194.304 41.5867 194.277 41.7467 194.277 41.96C194.277 42.1467 194.317 42.2934 194.397 42.4C194.504 42.5067 194.637 42.56 194.797 42.56C195.117 42.56 195.384 42.4267 195.597 42.16C195.837 41.8667 195.997 41.72 196.077 41.72C196.211 41.72 196.317 41.8134 196.397 42C196.477 42.16 196.517 42.36 196.517 42.6C196.544 43.3734 196.291 44.1334 195.757 44.88C195.224 45.6 194.437 46.2 193.397 46.68C192.384 47.1334 191.157 47.36 189.717 47.36C187.957 47.36 186.557 46.96 185.517 46.16C184.477 45.3334 183.944 44.24 183.917 42.88C183.917 41.8934 184.157 40.7867 184.637 39.56L186.837 33.8C186.971 33.4534 187.037 33.1734 187.037 32.96C187.037 32.6134 186.917 32.3467 186.677 32.16C186.464 31.9467 186.197 31.84 185.877 31.84C185.371 31.84 184.851 32.08 184.317 32.56C183.811 33.0134 183.397 33.76 183.077 34.8V34.72L180.557 42.84C180.477 43.16 180.437 43.44 180.437 43.68C180.437 44.0267 180.504 44.3067 180.637 44.52C180.771 44.7067 180.957 44.8934 181.197 45.08C181.384 45.2667 181.517 45.4267 181.597 45.56C181.677 45.6667 181.691 45.8134 181.637 46C181.504 46.3467 181.237 46.6 180.837 46.76C180.437 46.92 179.824 47 178.997 47H169.877C169.184 47 168.677 46.8934 168.357 46.68C168.037 46.44 167.931 46.1334 168.037 45.76C168.144 45.44 168.424 45.16 168.877 44.92C169.277 44.7067 169.611 44.4534 169.877 44.16C170.144 43.8667 170.371 43.4 170.557 42.76L176.637 22.8C176.717 22.56 176.757 22.36 176.757 22.2C176.757 21.9067 176.677 21.6667 176.517 21.48C176.384 21.2934 176.197 21.1067 175.957 20.92C175.691 20.7067 175.491 20.52 175.357 20.36C175.251 20.2 175.237 19.9867 175.317 19.72C175.477 19.1067 176.317 18.5734 177.837 18.12C179.357 17.6667 180.944 17.44 182.597 17.44C184.144 17.44 185.277 17.7334 185.997 18.32C186.744 18.9067 187.117 19.7067 187.117 20.72C187.117 21.3067 187.024 21.88 186.837 22.44L184.677 29.48C185.717 28.12 186.811 27.1734 187.957 26.64C189.131 26.1067 190.397 25.84 191.757 25.84C193.384 25.84 194.691 26.3334 195.677 27.32C196.691 28.3067 197.197 29.5867 197.197 31.16C197.197 31.9867 197.064 32.8 196.797 33.6L194.357 41.48Z" fill="#2BA84A"/>
</svg>
